<svg width="45" height="39" viewBox="0 0 45 39" fill="none" xmlns="http://www.w3.org/2000/svg">
<path d="M36.6098 35.0246C36.2588 35.0246 35.9039 34.9496 35.5569 34.8035L24.7916 30.2912C24.1647 30.0267 22.9738 29.7899 22.2916 29.7899H9.00259C7.37006 29.7899 6.0451 28.4634 6.0451 26.829V8.27452C6.0451 6.64015 7.37006 5.3137 9.00259 5.3137H22.2916C22.9698 5.3137 24.1568 5.07288 24.7798 4.80443L35.549 0.225023C35.9 0.0750076 36.2588 0 36.6137 0C37.9268 0 38.9205 1.058 38.9205 2.45946V32.5612C38.9205 33.9666 37.9268 35.0246 36.6058 35.0246H36.6098ZM9.00259 8.07713C8.89612 8.07713 8.80543 8.16793 8.80543 8.27452V26.829C8.80543 26.9356 8.89612 27.0264 9.00259 27.0264H22.2916C23.3484 27.0264 24.8823 27.3343 25.8563 27.7449L36.1602 32.0638V2.96872L25.8603 7.3468C24.8863 7.76131 23.3523 8.07319 22.2916 8.07319H9.00259V8.07713Z" fill="#222222"/>
<path d="M18.4942 39C18.4942 39 18.4902 39 18.4863 39H12.1927C11.6486 39 11.1596 38.6803 10.9348 38.1868L6.87715 29.1898C6.68392 28.7635 6.72336 28.266 6.97573 27.8713C7.2281 27.4765 7.66581 27.2396 8.13506 27.2396H14.4286C14.9728 27.2396 15.4617 27.5594 15.6865 28.0529L19.685 36.9195C19.8033 37.1248 19.8743 37.3617 19.8743 37.6144C19.8743 38.3763 19.2552 38.9961 18.4942 38.9961V39ZM13.0839 36.2366H16.349L13.5414 30.0031H10.2763L13.0879 36.2366H13.0839Z" fill="#222222"/>
<path d="M22.3468 29.7899C21.5857 29.7899 20.9666 29.1701 20.9666 28.4082V6.69544C20.9666 5.93352 21.5857 5.31372 22.3468 5.31372C23.1078 5.31372 23.7269 5.93352 23.7269 6.69544V28.4082C23.7269 29.1701 23.1078 29.7899 22.3468 29.7899Z" fill="#222222"/>
<path d="M6.86137 25.9882H1.38016C0.619101 25.9882 0 25.3684 0 24.6065V10.6195C0 9.85759 0.619101 9.23779 1.38016 9.23779H6.86137C7.62243 9.23779 8.24153 9.85759 8.24153 10.6195C8.24153 11.3814 7.62243 12.0012 6.86137 12.0012H2.76032V23.2247H6.86137C7.62243 23.2247 8.24153 23.8445 8.24153 24.6065C8.24153 25.3684 7.62243 25.9882 6.86137 25.9882Z" fill="#222222"/>
<path d="M38.2127 24C37.5417 24 37 23.4809 37 22.8379C37 22.1948 37.5417 21.6757 38.2127 21.6757C40.7797 21.6757 42.5745 19.7543 42.5745 17C42.5745 14.2457 40.7797 12.3243 38.2127 12.3243C37.5417 12.3243 37 11.8052 37 11.1621C37 10.5191 37.5417 10 38.2127 10C42.0814 10 45 13.01 45 17C45 20.99 42.0814 24 38.2127 24Z" fill="#222222"/>
</svg>
