<svg width="44" height="44" viewBox="0 0 44 44" fill="none" xmlns="http://www.w3.org/2000/svg">
<path d="M1 20.8H7.37696V43H1V20.8Z" stroke="#222222" stroke-width="2"/>
<path d="M30.6382 3.38136L31.4136 4.33388L32.1891 3.38136C33.3738 1.92631 35.2113 1 37.0681 1C40.3443 1 42.9791 3.69529 42.9791 7.26C42.9791 9.38347 41.6627 11.8417 39.3502 14.6582C37.2274 17.2436 34.4091 19.9651 31.4148 22.818C28.4197 19.9548 25.6007 17.228 23.4771 14.6417C21.1636 11.824 19.8482 9.37171 19.8482 7.26C19.8482 3.69529 22.483 1 25.7592 1C27.616 1 29.4535 1.92631 30.6382 3.38136Z" stroke="#222222" stroke-width="2"/>
<path d="M24.7864 33.9388L24.9532 34H25.1309H39.7906C41.3087 34 42.6314 35.152 42.9349 36.7445L27.1796 42.9433L13.5654 38.898V20.8H16.502L31.5217 26.6897C32.0995 26.9305 32.5078 27.5264 32.5078 28.204C32.5078 29.1288 31.7997 29.8 31.0366 29.8H25.3234L21.8163 28.3975L20.8324 28.0041L20.4966 29.0091L19.8055 31.0771L19.4976 31.9983L20.4094 32.3328L24.7864 33.9388Z" stroke="#222222" stroke-width="2"/>
</svg>
