<svg xmlns="http://www.w3.org/2000/svg" width="20" height="18" fill="none"><g stroke="#222" stroke-linejoin="round" clip-path="url(#a)"><path fill="#E6E6E6" d="M11.553 14.977v-2.022H.526v2.022c0 2.134.858 2.494 2.232 2.494h10.89c-1.258 0-2.095-.805-2.095-2.494Z"/><path d="M15.916 13.347v1.63c0 1.864-1.11 2.494-2.263 2.494M15.916 13.347V3.35c0-.942-.116-2.822 1.72-2.822"/><path d="M15.974 5.575h3.5V3.35c0-1.763-.532-2.822-2.358-2.822H5.263c-1.479 0-2.573.964-2.573 2.822v10.133"/><path d="m6.884 6.708 2.069 2.117 3.1-3.176"/></g><defs><clipPath id="a"><path fill="#fff" d="M0 0h20v18H0z"/></clipPath></defs></svg>