<svg xmlns="http://www.w3.org/2000/svg" width="20" height="20" fill="none"><g clip-path="url(#a)"><path stroke="#222" stroke-linejoin="round" d="M12.712 5.235H7.194C3.988 6.595.588 10.376.588 14.347c0 4.965 4.212 5.065 9.412 5.065 5.2 0 9.412-.1 9.412-5.065 0-3.965-3.494-7.747-6.7-9.112Z"/><path stroke="#222" stroke-linejoin="round" d="m7.194 5.235-2.3-3.37c-.112-.165-.053-.37.13-.477l.47-.27C6.824.34 8.63.429 9.841 1.324l.418.305c.464.342 1.117.46 1.706.3l1.27-.34c.736-.2 1.4.435 1.06 1.011l-1.577 2.635M10 15.882V8.824"/><path fill="#222" d="M10.159 15.259c-.853 0-1.718-.3-2.394-.906l.735-.882c.506.417 1.041.688 1.688.688.506 0 .818-.2.818-.536v-.017c0-.312-.194-.477-1.135-.718C8.735 12.6 8 12.282 8 11.158v-.017c0-1.023.823-1.7 1.976-1.7.824 0 1.524.259 2.1.718l-.647.935c-.5-.347-.994-.559-1.47-.559-.477 0-.724.218-.724.494v.018c0 .37.241.494 1.218.741 1.147.3 1.794.712 1.794 1.694v.018c0 1.123-.853 1.753-2.076 1.753l-.012.006Z"/></g><defs><clipPath id="a"><path fill="#fff" d="M0 0h20v20H0z"/></clipPath></defs></svg>