<svg xmlns="http://www.w3.org/2000/svg" width="20" height="20" fill="none"><g stroke="#222" stroke-linejoin="round" clip-path="url(#a)"><path fill="#E6E6E6" d="m13.035 15.294 1.083 4.118H5.882l1.083-4.118h6.07Z"/><path d="M4.835 10.435C2.412 9.882.588 7.418.588 4.465V3.27c0-.183.147-.33.33-.33h2.611M15.165 10.435c2.423-.553 4.247-3.017 4.247-5.97V3.27a.329.329 0 0 0-.33-.33h-2.611"/><path d="M11.418 15.294v-1.482c1.423-.57 3.64-2.494 3.911-4.43L16.382.588H3.442l1.052 8.794c.277 1.96 2.547 3.912 3.894 4.453v1.46"/></g><defs><clipPath id="a"><path fill="#fff" d="M0 0h20v20H0z"/></clipPath></defs></svg>