<svg xmlns="http://www.w3.org/2000/svg" width="33" height="30" fill="none"><path fill="#E6E6E6" d="M10.88 9.914a1.498 1.498 0 0 1-.795 1.966 1.498 1.498 0 1 1-1.17-2.76c.76-.324 1.645.03 1.965.794Z"/><path fill="#222" fill-rule="evenodd" d="M10.648 10.008c-.265-.634-1-.93-1.633-.66h-.002a1.25 1.25 0 0 0-.663 1.64l.002.004c.265.634 1 .93 1.633.66h.002a1.25 1.25 0 0 0 .663-1.64l-.002-.004Zm1.152-.484A2.494 2.494 0 0 0 8.523 8.2l.246.573-.244-.574A2.497 2.497 0 0 0 7.2 11.476a2.494 2.494 0 0 0 3.275 1.324A2.497 2.497 0 0 0 11.8 9.524Z" clip-rule="evenodd"/><path fill="#CCC" d="M17 16c1.105 0 2-.672 2-1.5s-.895-1.5-2-1.5-2 .672-2 1.5.895 1.5 2 1.5Z"/><path fill="#222" fill-rule="evenodd" d="M16.5 13.25a1.25 1.25 0 1 0 0 2.5 1.25 1.25 0 0 0 0-2.5ZM14 14.5a2.5 2.5 0 1 1 5 0 2.5 2.5 0 0 1-5 0Z" clip-rule="evenodd"/><path fill="#E6E6E6" d="M24.5 8c.828 0 1.5-.895 1.5-2s-.672-2-1.5-2-1.5.895-1.5 2 .672 2 1.5 2Z"/><path fill="#222" fill-rule="evenodd" d="M24.5 5.25a1.25 1.25 0 1 0 0 2.5 1.25 1.25 0 0 0 0-2.5ZM22 6.5a2.5 2.5 0 1 1 5 0 2.5 2.5 0 0 1-5 0Z" clip-rule="evenodd"/><path fill="#000" fill-rule="evenodd" d="M14.48 14 11 11.935l.52-.935L15 13.065l-.52.935Z" clip-rule="evenodd"/><path fill="#222" fill-rule="evenodd" d="M24 8.772 18.945 14 18 13.228 23.055 8l.945.772Z" clip-rule="evenodd"/></svg>