<svg width="577" height="700" viewBox="0 0 577 700" fill="none" xmlns="http://www.w3.org/2000/svg">
<g clip-path="url(#clip0_816_257)">
<path d="M366.42 100.06C337.92 100.06 310.89 112.11 292.08 133.12C273.08 112.11 246.05 100.06 217.55 100.06C162.2 100.06 117.08 145 117.08 200.53C117.08 222.63 117.08 281.45 237.46 359.27L292.08 394.52L346.51 359.27C466.89 281.45 466.89 222.63 466.89 200.53C466.89 145 421.95 100.06 366.42 100.06Z" fill="#F05777"/>
<path d="M243.489 522.2C242.379 516.9 242.379 511.43 243.309 505.94L244.219 500.1C248.589 472.51 239.459 444.2 219.749 424.47L179.179 384.1C168.579 373.33 151.419 371.5 138.629 379.9C134.789 382.46 131.509 385.74 129.319 389.4L96.7994 362C83.6494 350.86 74.3394 336.24 69.5794 319.62L57.7194 277.24C54.2394 264.64 42.5594 255.69 29.3894 255.69C20.6294 255.69 12.4094 259.7 6.74936 266.46C1.07936 273.22 -1.12064 281.99 0.539356 290.57L10.7594 345.74C15.5094 370.22 25.3694 393.97 39.7994 414.24L113.239 518.91C124.189 534.44 129.489 553.44 128.029 572.61L119.269 689.53C118.899 694.64 122.729 699.03 127.669 699.39H128.399C133.149 699.39 137.159 695.74 137.529 690.81L146.289 573.9C147.929 550.7 141.539 527.31 128.199 508.32L54.5994 403.84C41.8094 385.57 32.8494 364.38 28.8394 342.47L18.4194 287.3C17.8694 284.01 18.5994 280.54 20.7894 277.98C26.0894 271.58 37.9694 274.14 40.1594 282.18L52.0194 324.56C57.6894 344.65 69.0194 362.37 84.8994 375.88L123.819 408.77C124.179 413.7 125.459 418.63 128.009 423.2C130.379 427.21 133.859 432.33 137.869 437.81C144.809 447.31 155.049 461.74 155.049 468.87C155.049 473.8 159.239 478 164.179 478C169.119 478 173.309 473.8 173.309 468.87C173.309 455.9 162.339 440.55 152.649 427.04C149.189 422.29 145.909 417.72 143.889 414.25C140.229 407.68 142.249 399.27 148.639 395.07C154.119 391.6 161.609 392.33 166.349 397.08L206.739 437.45C222.439 452.98 229.569 475.45 226.089 497.37L225.179 503.02C223.899 510.51 224.069 518 225.359 525.5L255.509 691.91C256.419 696.29 260.259 699.39 264.639 699.39C265.179 699.39 265.729 699.21 266.279 699.21C271.199 698.3 274.499 693.55 273.579 688.61L243.449 522.2H243.489Z" fill="#191A1B"/>
<path d="M569.73 266.47C564.07 259.71 555.85 255.7 547.08 255.7C533.92 255.7 522.23 264.65 518.76 277.25L506.89 319.63C502.14 336.25 492.82 350.87 479.68 362.01L447.16 389.41C444.97 385.75 441.68 382.47 437.85 379.91C425.06 371.51 407.89 373.34 397.29 384.11L356.73 424.48C337.01 444.21 327.88 472.52 332.26 500.11L333.17 505.95C334.09 511.44 334.09 516.91 332.99 522.21L302.85 688.62C301.93 693.55 305.22 698.31 310.15 699.22C310.7 699.22 311.25 699.4 311.79 699.4C316.18 699.4 320.01 696.3 320.92 691.92L351.07 525.51C352.35 518.02 352.52 510.53 351.25 503.03L350.34 497.38C346.86 475.46 353.99 452.99 369.7 437.46L410.08 397.09C414.83 392.34 422.32 391.61 427.79 395.08C434.19 399.28 436.19 407.68 432.54 414.26C430.52 417.73 427.24 422.3 423.77 427.05C414.08 440.56 403.12 455.91 403.12 468.88C403.12 473.81 407.14 478.01 412.25 478.01C417.36 478.01 421.38 473.81 421.38 468.88C421.38 461.75 431.61 447.32 438.56 437.82C442.57 432.34 446.04 427.22 448.42 423.21C450.98 418.64 452.26 413.71 452.62 408.78L491.54 375.89C507.43 362.38 518.75 344.65 524.42 324.57L536.29 282.19C538.48 274.15 550.36 271.59 555.65 277.99C557.84 280.55 558.58 284.02 558.02 287.31L547.61 342.48C543.6 364.39 534.64 385.59 521.85 403.85L448.24 508.33C434.91 527.33 428.51 550.71 430.15 573.91L438.92 690.82C439.29 695.75 443.31 699.4 448.05 699.4H448.78C453.71 699.04 457.55 694.65 457.18 689.54L448.41 572.62C446.96 553.44 452.25 534.44 463.21 518.92L536.64 414.25C551.07 393.98 560.94 370.23 565.69 345.75L575.91 290.58C577.56 282 575.37 273.23 569.7 266.47H569.73Z" fill="#191A1B"/>
<path d="M374.13 64.74C372.25 64.74 370.36 64.17 368.74 62.97C364.67 59.99 363.79 54.26 366.78 50.2L386.44 23.39C389.42 19.3 395.14 18.45 399.21 21.43C403.28 24.41 404.16 30.14 401.17 34.2L381.51 61.01C379.72 63.45 376.95 64.74 374.14 64.74H374.13Z" fill="#F05777"/>
<path d="M225.83 64.74C223.02 64.74 220.25 63.46 218.46 61.01L198.8 34.2C195.82 30.13 196.7 24.41 200.76 21.43C204.83 18.47 210.54 19.32 213.53 23.39L233.19 50.2C236.17 54.27 235.29 59.99 231.23 62.97C229.6 64.17 227.71 64.74 225.84 64.74H225.83Z" fill="#F05777"/>
<path d="M299.979 48.74C294.999 48.74 290.919 44.74 290.849 39.75L290.399 9.28003C290.329 4.23003 294.349 0.0800298 299.399 2.97683e-05C304.749 -0.11997 308.589 3.94003 308.669 8.99003L309.119 39.46C309.189 44.51 305.169 48.66 300.119 48.74H299.979Z" fill="#F05777"/>
</g>
<defs>
<clipPath id="clip0_816_257">
<rect width="576.47" height="699.39" fill="white"/>
</clipPath>
</defs>
</svg>
