<svg width="577" height="700" viewBox="0 0 577 700" fill="none" xmlns="http://www.w3.org/2000/svg">
<g clip-path="url(#clip0_816_248)">
<path d="M366.42 100.06C337.92 100.06 310.89 112.11 292.08 133.12C273.08 112.11 246.05 100.06 217.55 100.06C162.2 100.06 117.08 145 117.08 200.53C117.08 222.63 117.08 281.45 237.46 359.27L292.08 394.52L346.51 359.27C466.89 281.45 466.89 222.63 466.89 200.53C466.89 145 421.95 100.06 366.42 100.06ZM292.08 372.78L247.32 343.92C135.35 271.58 135.35 219.89 135.35 200.53C135.35 155.04 172.25 118.33 217.55 118.33C226.32 118.33 235.26 119.79 243.67 122.53C253.9 126 263.4 131.48 271.62 138.6C275.46 141.89 279.11 145.73 282.22 149.74C284.41 152.84 287.52 158.14 291.9 158.14C295.74 158.14 297.93 154.67 300.12 151.93C302.86 148.64 305.6 145.17 308.7 142.07C323.86 126.91 345.06 118.33 366.43 118.33C411.91 118.33 448.63 155.04 448.63 200.53C448.63 219.89 448.63 271.58 336.66 343.92L292.09 372.78H292.08Z" fill="#FF5576"/>
<path d="M243.489 522.2C242.379 516.9 242.379 511.43 243.309 505.94L244.219 500.1C248.589 472.51 239.459 444.2 219.749 424.47L179.179 384.1C168.579 373.33 151.419 371.5 138.629 379.9C134.789 382.46 131.509 385.74 129.319 389.4L96.7994 362C83.6494 350.86 74.3394 336.24 69.5794 319.62L57.7194 277.24C54.2394 264.64 42.5594 255.69 29.3894 255.69C20.6294 255.69 12.4094 259.7 6.74936 266.46C1.07936 273.22 -1.12064 281.99 0.539356 290.57L10.7594 345.74C15.5094 370.22 25.3694 393.97 39.7994 414.24L113.239 518.91C124.189 534.44 129.489 553.44 128.029 572.61L119.269 689.53C118.899 694.64 122.729 699.03 127.669 699.39H128.399C133.149 699.39 137.159 695.74 137.529 690.81L146.289 573.9C147.929 550.7 141.539 527.31 128.199 508.32L54.5994 403.84C41.8094 385.57 32.8494 364.38 28.8394 342.47L18.4194 287.3C17.8694 284.01 18.5994 280.54 20.7894 277.98C26.0894 271.58 37.9694 274.14 40.1594 282.18L52.0194 324.56C57.6894 344.65 69.0194 362.37 84.8994 375.88L123.819 408.77C124.179 413.7 125.459 418.63 128.009 423.2C130.379 427.21 133.859 432.33 137.869 437.81C144.809 447.31 155.049 461.74 155.049 468.87C155.049 473.8 159.239 478 164.179 478C169.119 478 173.309 473.8 173.309 468.87C173.309 455.9 162.339 440.55 152.649 427.04C149.189 422.29 145.909 417.72 143.889 414.25C140.229 407.68 142.249 399.27 148.639 395.07C154.119 391.6 161.609 392.33 166.349 397.08L206.739 437.45C222.439 452.98 229.569 475.45 226.099 497.37L225.189 503.02C223.909 510.51 224.079 518 225.369 525.5L255.519 691.91C256.429 696.29 260.269 699.39 264.649 699.39C265.189 699.39 265.739 699.21 266.289 699.21C271.209 698.3 274.509 693.55 273.589 688.61L243.459 522.2H243.489Z" fill="#191A1B"/>
<path d="M569.73 266.47C564.07 259.71 555.85 255.7 547.08 255.7C533.92 255.7 522.23 264.65 518.76 277.25L506.89 319.63C502.14 336.25 492.82 350.87 479.68 362.01L447.16 389.41C444.97 385.75 441.68 382.47 437.85 379.91C425.06 371.51 407.89 373.34 397.29 384.11L356.73 424.48C337.01 444.21 327.88 472.52 332.26 500.11L333.17 505.95C334.09 511.44 334.09 516.91 332.99 522.21L302.85 688.62C301.93 693.55 305.22 698.31 310.16 699.22C310.71 699.22 311.26 699.4 311.8 699.4C316.19 699.4 320.02 696.3 320.93 691.92L351.08 525.51C352.36 518.02 352.53 510.53 351.26 503.03L350.35 497.38C346.87 475.46 354 452.99 369.71 437.46L410.09 397.09C414.84 392.34 422.33 391.61 427.8 395.08C434.2 399.28 436.2 407.68 432.55 414.26C430.53 417.73 427.25 422.3 423.78 427.05C414.09 440.56 403.13 455.91 403.13 468.88C403.13 473.81 407.15 478.01 412.26 478.01C417.37 478.01 421.39 473.81 421.39 468.88C421.39 461.75 431.62 447.32 438.57 437.82C442.58 432.34 446.05 427.22 448.43 423.21C450.99 418.64 452.27 413.71 452.63 408.78L491.55 375.89C507.44 362.38 518.76 344.65 524.43 324.57L536.3 282.19C538.49 274.15 550.37 271.59 555.66 277.99C557.85 280.55 558.59 284.02 558.03 287.31L547.62 342.48C543.61 364.39 534.65 385.59 521.86 403.85L448.25 508.33C434.92 527.33 428.52 550.71 430.16 573.91L438.93 690.82C439.3 695.75 443.32 699.4 448.06 699.4H448.79C453.72 699.04 457.56 694.65 457.19 689.54L448.42 572.62C446.97 553.44 452.26 534.44 463.22 518.92L536.65 414.25C551.08 393.98 560.95 370.23 565.7 345.75L575.92 290.58C577.57 282 575.38 273.23 569.71 266.47H569.73Z" fill="#191A1B"/>
<path d="M373.53 64.74C371.65 64.74 369.76 64.17 368.14 62.97C364.07 59.99 363.19 54.26 366.18 50.2L385.84 23.39C388.82 19.3 394.54 18.45 398.61 21.43C402.68 24.41 403.56 30.14 400.57 34.2L380.91 61.01C379.12 63.45 376.35 64.74 373.54 64.74H373.53Z" fill="#FF5576"/>
<path d="M225.24 64.74C222.43 64.74 219.66 63.46 217.87 61.01L198.21 34.2C195.23 30.13 196.11 24.41 200.17 21.43C204.24 18.47 209.96 19.32 212.94 23.39L232.6 50.2C235.58 54.27 234.7 59.99 230.64 62.97C229.01 64.17 227.12 64.74 225.25 64.74H225.24Z" fill="#FF5576"/>
<path d="M299.38 48.74C294.4 48.74 290.32 44.74 290.25 39.75L289.8 9.28003C289.73 4.23003 293.75 0.0800298 298.8 2.97683e-05C303.98 -0.11997 307.99 3.94003 308.07 8.99003L308.52 39.46C308.59 44.51 304.57 48.66 299.52 48.74H299.38Z" fill="#FF5576"/>
</g>
<defs>
<clipPath id="clip0_816_248">
<rect width="576.47" height="699.39" fill="white"/>
</clipPath>
</defs>
</svg>
